<?xml version="1.0" encoding="utf-8"?>
<!-- Generator: Adobe Illustrator 16.0.0, SVG Export Plug-In . SVG Version: 6.00 Build 0)  -->
<!DOCTYPE svg PUBLIC "-//W3C//DTD SVG 1.1//EN" "http://www.w3.org/Graphics/SVG/1.1/DTD/svg11.dtd">
<svg version="1.1" xmlns="http://www.w3.org/2000/svg" xmlns:xlink="http://www.w3.org/1999/xlink" x="0px" y="0px"
	 width="1354.561px" height="811.574px" viewBox="0 0 1354.561 811.574" enable-background="new 0 0 1354.561 811.574"
	 xml:space="preserve">
<g id="Capa_2">
	<g>
		<path fill="#A8A49B" d="M295.666,660.49c-24.841,4.614-24.536,9.712,0.679,11.327l231.044,14.8
			c25.215,1.615,65.965-1.812,90.556-7.613l523.866-123.609c24.591-5.802,24.038-10.671-1.228-10.818l-168.249-0.989
			c-25.266-0.148-66.263,3.507-91.104,8.121L295.666,660.49z"/>
		<path fill="#918E87" d="M570.62,672.096c-5.146,0-9.855-0.134-13.998-0.399l-177.836-13.654l526.823-97.872
			c25.769-4.787,116.713-3.345,143.756-3.345l1.55,0.005l51.959,0.305L650.997,663.762c-20.468,4.829-54.272,8.334-80.375,8.334
			C570.62,672.096,570.622,672.096,570.62,672.096z"/>
		<rect x="1063.865" y="443.474" fill="#191215" width="42.876" height="87.284"/>
		<polygon fill="#191215" points="782.104,596.511 706.305,610.497 706.305,465.983 782.104,465.983 		"/>
		<path fill="#2C1D23" d="M1080.53,467.926v-0.028h-23.757v0.021l-0.233-0.021c-8.946,0-16.198,22.148-16.198,49.466
			c0,27.191,7.185,49.248,16.072,49.455v0.011h23.756c8.946,0,16.198-22.146,16.198-49.466
			C1096.368,490.413,1089.308,468.514,1080.53,467.926z"/>
		<rect x="998.02" y="446.075" fill="#191215" width="70.439" height="87.285"/>
		<path fill="#2C1D23" d="M1042.023,470.03V470h-27.596v0.021c-0.091-0.003-0.181-0.021-0.271-0.021
			c-10.393,0-18.816,23.79-18.816,53.135c0,29.209,8.346,52.903,18.67,53.125v0.012h27.596c10.392,0,18.815-23.79,18.815-53.137
			C1060.421,494.185,1052.22,470.661,1042.023,470.03z"/>
		<path fill="#4D5555" d="M1056.748,523.135c0-9.649-2.1-17.909-5.078-21.354c-1.968-5.698-4.715-9.242-7.756-9.242
			c-5.979,0-10.829,13.698-10.829,30.596c0,16.899,4.85,30.598,10.829,30.598c3.041,0,5.788-3.544,7.756-9.244
			C1054.648,541.045,1056.748,532.786,1056.748,523.135z"/>
		<path fill="#4D5555" d="M1093.206,517.363c0-8.983-1.808-16.672-4.372-19.879c-1.693-5.305-4.059-8.604-6.678-8.604
			c-5.146,0-9.321,12.752-9.321,28.483c0,15.732,4.176,28.483,9.321,28.483c2.619,0,4.984-3.3,6.678-8.605
			C1091.398,534.035,1093.206,526.347,1093.206,517.363z"/>
		<path fill="#2C1D23" d="M733.487,502.011v-0.042h-50.533v0.028c-0.167-0.005-0.332-0.028-0.5-0.028
			c-19.029,0-34.455,33.336-34.455,74.46c0,40.931,15.283,74.135,34.188,74.445v0.015h50.534c19.028,0,34.454-33.336,34.454-74.46
			C767.175,535.86,752.159,502.894,733.487,502.011z"/>
		<path fill="#4D5555" d="M760.447,576.429c0-13.523-3.844-25.099-9.297-29.924c-3.604-7.986-8.633-12.952-14.202-12.952
			c-10.949,0-19.832,19.196-19.832,42.876s8.883,42.875,19.832,42.875c5.569,0,10.598-4.966,14.202-12.952
			C756.604,601.526,760.447,589.951,760.447,576.429z"/>
		<path fill="#33DBBA" d="M1164.549,359.939c0-48.81-8.039-82.116-16.079-103.938c-8.039-21.821-17.227-29.86-26.989-33.306
			c-9.762-3.445-292.862-78.097-328.465-87.285c-35.604-9.188-44.217,6.891-44.217,6.891l-147.005-33.306
			c0,0-62.018-8.613-136.095-6.891c-74.077,1.723-168.827,26.989-178.015,29.86s-6.317,7.465-4.594,8.614
			c-54.553,121.165-74.077,316.406-74.077,316.406v84.987l-1.723,12.06l5.168,49.958l12.633,18.376l335.356,12.06l134.67-18.673
			l11.761-20.95c0,0,2.871-68.334,11.485-87.284c8.613-18.95,17.228-26.415,28.711-26.415c11.484,0,26.415,3.445,30.435,28.138
			c3.742,22.981,9.463,61.874-0.871,89.376l242.647-51.441l6.583-14.391c0,0,2.01-27.563,2.01-38.475
			c0-10.91,6.604-38.187,20.099-39.622c13.494-1.436,15.504,18.376,15.504,34.741c0,16.366-0.574,37.039-0.574,37.039l-4.926,12.504
			l9.603-2.037l4.224-11.902c0,0,1.148-37.9,3.733-50.246c2.584-12.347,6.029-21.534,14.93-22.683
			c8.901-1.148,13.208,14.068,13.208,35.315s-0.861,30.435-0.861,30.435l-3.873,12.434l28.853-6.116l32.731-17.228l5.168-10.911
			C1165.697,496.034,1164.549,408.75,1164.549,359.939"/>
		<linearGradient id="SVGID_1_" gradientUnits="userSpaceOnUse" x1="596.0942" y1="371.1226" x2="1202.0933" y2="371.1226">
			<stop  offset="0" style="stop-color:#2DBA9F"/>
			<stop  offset="0.2869" style="stop-color:#2CB69B"/>
			<stop  offset="0.5944" style="stop-color:#2AA98F"/>
			<stop  offset="0.9104" style="stop-color:#27937A"/>
			<stop  offset="1" style="stop-color:#268C73"/>
		</linearGradient>
		<path fill="url(#SVGID_1_)" d="M1148.47,256.002c-8.039-21.821-17.227-29.86-26.989-33.306
			c-9.762-3.445-292.862-78.097-328.465-87.285c-35.604-9.188-44.217,6.891-44.217,6.891l-147.005-33.306
			c0,0-1.789-0.248-5.111-0.651c-0.645,8.129-1.475,17.931-2.486,28.599c-2.555,26.965-26.718,380.639-29.946,496.955
			l130.868-18.146l11.761-20.95c0,0,2.871-68.334,11.485-87.284c8.613-18.95,17.228-26.415,28.711-26.415
			c11.484,0,26.415,3.445,30.435,28.138c3.742,22.981,9.463,61.874-0.871,89.376l242.647-51.441l6.583-14.391
			c0,0,2.01-27.563,2.01-38.475c0-10.91,6.604-38.187,20.099-39.622c13.494-1.436,15.504,18.376,15.504,34.741
			c0,16.366-0.574,37.039-0.574,37.039l-4.926,12.504l9.603-2.037l4.224-11.902c0,0,1.148-37.9,3.733-50.246
			c2.584-12.347,6.029-21.534,14.93-22.683c8.901-1.148,13.208,14.068,13.208,35.315s-0.861,30.435-0.861,30.435l-3.873,12.434
			l28.853-6.116l32.731-17.228l5.168-10.911c0,0-1.148-87.284-1.148-136.095C1164.549,311.129,1156.51,277.823,1148.47,256.002"/>
		<path fill="#232633" d="M1148.47,256.002c-1.217-3.303-2.46-6.285-3.728-8.989c-59.607-13.761-504.481-116.465-520.553-120.215
			c-17.228-4.02-25.841-4.594-30.435,2.297c-14.356-13.782-44.216-15.504-84.413-14.93s-185.479,10.336-226.25,26.415
			c-54.553,121.165-74.077,316.406-74.077,316.406v84.691c12.173,8.263,49.504,25.563,148.728,25.563
			c130.353,0,209.598-19.524,214.766-28.138c0-17.802,0.574-36.751,0.574-36.751s39.048-22.396,53.979-32.158
			c14.93-9.762,24.118-17.227,28.138-46.513s29.286-115.423,80.968-112.551c48.037,2.668,381.335,29.646,428.102,33.438
			C1162.795,304.03,1155.635,275.45,1148.47,256.002"/>
		<path fill="#2E375B" d="M578.353,215.404c0,0,315.338,15.063,581.36,83.573c-3.034-17.677-7.137-31.83-11.243-42.976
			c-1.217-3.303-2.46-6.285-3.728-8.989c-59.607-13.761-504.481-116.465-520.553-120.215c-17.228-4.02-25.841-4.594-30.435,2.297
			c-6.621-6.356-16.548-10.144-29.259-12.327L578.353,215.404"/>
		<path fill="#33DBBA" d="M257.25,221.356c0,0-9.188-6.508-22.204-3.063c-13.017,3.446-34.071,22.587-35.603,38.666
			s-7.274,81.925-7.274,81.925s-5.743,0-10.719,0c-4.977,0-9.188-3.828-9.57-19.524c-0.383-15.696,3.445-58.955,6.891-75.8
			c3.446-16.845,22.587-52.83,83.456-47.087C262.227,209.106,257.25,221.356,257.25,221.356z"/>
		<path fill="#2DBA9F" d="M257.783,219.938c1.21-3.37,4.09-12.304,4.412-21.764c-52.407-0.792-69.471,31.875-72.704,47.684
			c-3.446,16.845-7.274,60.104-6.891,75.8c0.231,9.49,1.863,14.637,4.217,17.228c2.998,0,5.353,0,5.353,0s5.742-65.847,7.274-81.925
			s22.586-35.22,35.603-38.666c8.356-2.211,15.117-0.323,18.9,1.314C255.306,219.635,256.587,219.751,257.783,219.938z"/>
		<path fill="#28304C" d="M593.754,129.095c-14.356-13.782-44.216-15.504-84.413-14.93s-185.479,10.336-226.25,26.415
			c-54.553,121.165-74.077,316.406-74.077,316.406v84.691c12.173,8.263,49.504,25.563,148.728,25.563
			c130.353,0,209.598-19.524,214.766-28.138c0-17.802,0.574-36.751,0.574-36.751c0.625-47.88,16.089-288.386,21.714-374.597
			C594.43,128.168,594.079,128.608,593.754,129.095"/>
		<path fill="#C3AEA1" d="M572.508,539.669c0-13.186,0.315-26.992,0.478-33.271c-20.663,13.529-101.353,16.428-101.353,16.428
			L459,542.731l-196.007-3.063c0,0-4.977-11.867-9.953-20.673c-24.93-2.887-38.164-6.491-44.025-8.475v31.723
			c12.173,8.263,49.504,25.563,148.728,25.563C488.094,567.807,567.339,548.282,572.508,539.669"/>
		<path fill="#35394D" d="M744.873,228.893c0.089,0.475,0.178,0.95,0.267,1.425c0.895,4.865,1.623,9.76,2.431,14.563
			c0.674,4.824,1.337,9.571,1.979,14.166c0.533,4.609,1.05,9.065,1.539,13.291c0.122,1.057,0.243,2.099,0.362,3.126
			c0.089,1.03,0.177,2.043,0.263,3.041c0.166,1.995,0.327,3.923,0.48,5.773c0.157,1.851,0.308,3.625,0.451,5.312
			c0.078,0.844,0.154,1.666,0.228,2.464c0.048,0.8,0.095,1.578,0.139,2.331c0.18,3.015,0.336,5.644,0.465,7.808
			c0.286,4.332,0.449,6.808,0.449,6.808s-0.004-2.48-0.011-6.821c-0.018-2.172-0.039-4.809-0.064-7.833
			c0.034-3.029-0.216-6.434-0.389-10.153c-0.097-1.86-0.197-3.797-0.301-5.803c-0.056-1.002-0.112-2.022-0.169-3.057
			c-0.087-1.033-0.175-2.082-0.265-3.145c-0.376-4.251-0.685-8.746-1.205-13.375c-0.588-4.62-1.109-9.408-1.797-14.25
			c-0.786-4.828-1.488-9.75-2.366-14.642c-0.051-0.262-0.101-0.523-0.151-0.785C746.434,229.055,745.644,228.973,744.873,228.893"/>
		<path fill="#455389" d="M725.211,153.762c0,0,0.217,0.581,0.622,1.671c0.415,1.085,0.943,2.708,1.678,4.747
			c0.678,2.061,1.551,4.543,2.428,7.433c0.923,2.874,1.861,6.148,2.937,9.701c0.553,1.772,1.027,3.649,1.574,5.574
			c0.521,1.932,1.116,3.914,1.615,5.982c1.043,4.125,2.157,8.467,3.189,12.99c0.518,2.261,1.1,4.546,1.587,6.883
			c0.493,2.335,0.992,4.699,1.495,7.081c0.254,1.19,0.51,2.386,0.766,3.584c0.225,1.205,0.45,2.414,0.677,3.625
			c0.363,1.949,0.729,3.903,1.094,5.859c0.771,0.08,1.561,0.162,2.334,0.243c-0.419-2.179-0.837-4.356-1.254-6.527
			c-0.233-1.215-0.467-2.428-0.699-3.638c-0.264-1.203-0.527-2.403-0.789-3.598c-0.532-2.387-1.061-4.756-1.582-7.096
			c-0.527-2.338-1.148-4.625-1.704-6.888c-1.081-4.532-2.365-8.852-3.536-12.958c-0.564-2.059-1.224-4.03-1.807-5.952
			c-0.609-1.915-1.144-3.78-1.753-5.541c-0.594-1.766-1.164-3.458-1.705-5.066c-0.549-1.606-1.135-3.108-1.649-4.531
			c-1.025-2.847-2.026-5.29-2.809-7.315C726.274,156.005,725.211,153.762,725.211,153.762"/>
		<path fill="#35394D" d="M839.518,239.882c0.269,1.41,0.537,2.822,0.807,4.234c0.842,4.469,1.524,8.967,2.283,13.38
			c0.635,4.433,1.259,8.796,1.863,13.018c0.537,4.231,0.966,8.333,1.437,12.217c0.113,0.971,0.225,1.93,0.335,2.874
			c0.084,0.947,0.166,1.878,0.248,2.795c0.163,1.834,0.321,3.605,0.473,5.306c0.154,1.701,0.301,3.332,0.441,4.883
			c0.074,0.775,0.147,1.531,0.219,2.265c0.046,0.736,0.09,1.451,0.134,2.144c0.173,2.772,0.323,5.188,0.447,7.179
			c0.277,3.983,0.436,6.26,0.436,6.26s0.001-2.281,0.004-6.273c-0.014-1.998-0.03-4.423-0.048-7.205
			c0.035-2.786-0.195-5.917-0.341-9.34c-0.197-3.419-0.263-7.137-0.672-11.043c-0.358-3.909-0.656-8.042-1.141-12.299
			c-0.551-4.249-1.034-8.652-1.682-13.105c-0.737-4.438-1.394-8.965-2.22-13.461c-0.23-1.176-0.461-2.352-0.691-3.527
			C841.063,240.081,840.302,239.982,839.518,239.882"/>
		<path fill="#455389" d="M821.714,173.801c0,0,0.201,0.534,0.579,1.534c0.386,0.996,0.877,2.487,1.561,4.359
			c0.632,1.892,1.445,4.171,2.262,6.825c0.86,2.639,1.736,5.646,2.728,8.913c0.512,1.628,0.949,3.354,1.454,5.123
			c0.48,1.776,1.049,3.591,1.517,5.491c0.981,3.786,2.038,7.771,2.999,11.927c0.484,2.077,1.027,4.176,1.485,6.322
			c0.462,2.145,0.929,4.317,1.399,6.505c0.238,1.094,0.479,2.191,0.719,3.292c0.211,1.107,0.422,2.218,0.634,3.331
			c0.156,0.818,0.312,1.638,0.468,2.459c0.784,0.101,1.546,0.199,2.332,0.301c-0.21-1.065-0.419-2.13-0.628-3.193
			c-0.219-1.117-0.438-2.232-0.656-3.344c-0.248-1.105-0.495-2.208-0.741-3.305c-0.5-2.194-0.996-4.371-1.486-6.521
			c-0.498-2.148-1.08-4.249-1.604-6.327c-1.019-4.163-2.215-8.132-3.307-11.904c-1.116-3.766-2.267-7.298-3.356-10.546
			c-1.106-3.244-2.155-6.205-3.167-8.799c-0.965-2.611-1.907-4.849-2.643-6.705C822.714,175.853,821.714,173.801,821.714,173.801"/>
		<path fill="#35394D" d="M914.326,250.335c0.369,1.899,0.739,3.806,1.108,5.712c0.789,4.091,1.426,8.21,2.136,12.25
			c0.595,4.059,1.18,8.054,1.746,11.919c0.506,3.875,0.909,7.631,1.354,11.188c0.106,0.89,0.212,1.768,0.315,2.632
			c0.08,0.867,0.158,1.72,0.235,2.56c0.155,1.68,0.306,3.302,0.449,4.86c0.146,1.558,0.286,3.052,0.419,4.472
			c0.071,0.71,0.141,1.402,0.209,2.075c0.044,0.674,0.087,1.329,0.129,1.963c0.166,2.54,0.312,4.753,0.432,6.577
			c0.247,3.648,0.421,5.735,0.421,5.735s0.026-2.089,0.018-5.749c-0.009-1.831-0.02-4.054-0.031-6.604
			c0.039-2.554-0.173-5.423-0.304-8.56c-0.179-3.134-0.237-6.542-0.616-10.122c-0.332-3.582-0.604-7.372-1.058-11.272
			c-0.513-3.893-0.958-7.929-1.565-12.009c-0.689-4.066-1.3-8.213-2.072-12.332c-0.331-1.65-0.662-3.3-0.992-4.945
			C915.889,250.571,915.096,250.451,914.326,250.335"/>
		<path fill="#455389" d="M898.141,191.692c0,0,0.187,0.488,0.536,1.404c0.333,0.92,0.822,2.271,1.444,3.989
			c0.585,1.732,1.341,3.816,2.097,6.246c0.797,2.415,1.609,5.167,2.529,8.156c0.475,1.49,0.882,3.069,1.351,4.688
			c0.444,1.626,0.976,3.286,1.409,5.025c0.911,3.465,1.895,7.111,2.79,10.916c0.451,1.9,0.954,3.822,1.384,5.786
			c0.43,1.964,0.864,3.951,1.303,5.955c0.223,1.001,0.446,2.006,0.671,3.014c0.196,1.014,0.395,2.03,0.592,3.049
			c0.026,0.138,0.054,0.276,0.08,0.415c0.77,0.116,1.563,0.236,2.332,0.353c-0.08-0.404-0.161-0.807-0.242-1.21
			c-0.205-1.023-0.41-2.044-0.614-3.062c-0.232-1.012-0.463-2.021-0.693-3.027c-0.468-2.009-0.932-4.001-1.391-5.97
			c-0.469-1.966-1.011-3.89-1.501-5.791c-0.953-3.812-2.076-7.441-3.098-10.893c-1.047-3.444-2.123-6.675-3.146-9.645
			c-1.035-2.966-2.021-5.67-2.969-8.041c-0.904-2.385-1.787-4.429-2.477-6.124C899.078,193.562,898.141,191.692,898.141,191.692"/>
		<path fill="#35394D" d="M981.307,261.19c0.271,1.377,0.541,2.757,0.813,4.137c0.735,3.747,1.326,7.521,1.987,11.223
			c0.555,3.719,1.102,7.379,1.63,10.921c0.474,3.55,0.852,6.992,1.269,10.251c0.212,1.629,0.394,3.217,0.519,4.757
			c0.147,1.539,0.289,3.026,0.425,4.454c0.139,1.428,0.271,2.797,0.397,4.099c0.067,0.651,0.134,1.285,0.198,1.901
			c0.043,0.618,0.084,1.218,0.124,1.8c0.16,2.328,0.3,4.357,0.415,6.028c0.239,3.344,0.407,5.257,0.407,5.257
			s0.031-1.916,0.032-5.271c-0.005-1.679-0.01-3.717-0.016-6.055c0.042-2.342-0.149-4.973-0.267-7.85
			c-0.161-2.874-0.211-6-0.56-9.282c-0.305-3.285-0.552-6.76-0.973-10.337c-0.476-3.569-0.884-7.271-1.45-11.011
			c-0.64-3.728-1.205-7.531-1.924-11.306c-0.225-1.103-0.448-2.206-0.673-3.307C982.886,261.465,982.081,261.325,981.307,261.19"/>
		<path fill="#455389" d="M966.138,206.371c0,0,0.172,0.448,0.493,1.287c0.307,0.843,0.757,2.081,1.33,3.655
			c0.539,1.587,1.235,3.496,1.933,5.723c0.734,2.213,1.482,4.735,2.332,7.473c0.438,1.364,0.814,2.812,1.247,4.295
			c0.409,1.49,0.902,3.009,1.303,4.603c0.842,3.175,1.751,6.514,2.58,9.999c0.419,1.741,0.884,3.501,1.282,5.3
			c0.397,1.799,0.801,3.62,1.207,5.455c0.207,0.917,0.414,1.837,0.622,2.76c0.183,0.929,0.366,1.86,0.55,2.793
			c0.097,0.492,0.193,0.984,0.29,1.477c0.774,0.135,1.579,0.275,2.354,0.41c-0.159-0.779-0.317-1.557-0.476-2.334
			c-0.191-0.938-0.382-1.874-0.572-2.807c-0.216-0.928-0.431-1.853-0.646-2.773c-0.436-1.841-0.867-3.667-1.294-5.471
			c-0.438-1.801-0.943-3.563-1.4-5.305c-0.887-3.492-1.936-6.815-2.888-9.975c-0.977-3.154-1.979-6.111-2.935-8.828
			c-0.965-2.714-1.887-5.188-2.772-7.355c-0.844-2.181-1.668-4.049-2.312-5.599C967.014,208.077,966.138,206.371,966.138,206.371"/>
		<path fill="#44DDCF" d="M1020.1,218.086c0,0,0.021,0.056,0.062,0.165c0.013,0.003,0.011,0.002,0.024,0.005
			C1020.129,218.144,1020.1,218.086,1020.1,218.086"/>
		<path fill="#35394D" d="M1034.262,270.916c0.172,0.896,0.345,1.793,0.518,2.691c0.678,3.525,1.226,7.074,1.836,10.555
			c0.515,3.497,1.021,6.938,1.512,10.269c0.409,3.343,0.805,6.574,1.181,9.639c0.198,1.532,0.366,3.024,0.485,4.473
			c0.138,1.447,0.271,2.845,0.399,4.187c0.131,1.343,0.256,2.629,0.374,3.854c0.144,1.223,0.243,2.385,0.308,3.479
			c0.153,2.188,0.288,4.096,0.398,5.667c0.229,3.144,0.393,4.942,0.393,4.942s0.037-1.801,0.046-4.956
			c0.001-1.579,0.001-3.495,0.002-5.694c0.045-2.202-0.124-4.677-0.229-7.382c-0.144-2.703-0.183-5.642-0.5-8.729
			c-0.277-3.09-0.502-6.358-0.887-9.722c-0.436-3.357-0.809-6.839-1.33-10.358c-0.589-3.507-1.11-7.084-1.772-10.636
			c-0.121-0.606-0.242-1.212-0.363-1.817C1035.833,271.222,1035.061,271.071,1034.262,270.916"/>
		<path fill="#455389" d="M1020.161,218.251c0.071,0.191,0.203,0.545,0.391,1.049c0.281,0.796,0.693,1.963,1.219,3.448
			c0.495,1.496,1.134,3.296,1.772,5.395c0.673,2.086,1.357,4.463,2.139,7.042c0.402,1.286,0.746,2.649,1.144,4.046
			c0.376,1.403,0.829,2.835,1.196,4.335c0.774,2.989,1.607,6.134,2.372,9.414c0.384,1.639,0.813,3.295,1.178,4.988
			c0.367,1.693,0.738,3.406,1.112,5.133c0.19,0.862,0.382,1.729,0.573,2.597c0.169,0.874,0.337,1.75,0.507,2.627
			c0.165,0.862,0.332,1.726,0.498,2.59c0.799,0.155,1.571,0.306,2.37,0.461c-0.233-1.166-0.466-2.33-0.698-3.491
			c-0.176-0.882-0.353-1.763-0.528-2.641c-0.199-0.873-0.398-1.744-0.597-2.61c-0.772-3.473-1.604-6.873-2.495-10.142
			c-0.821-3.286-1.795-6.415-2.679-9.39c-0.904-2.97-1.839-5.753-2.726-8.312c-0.897-2.556-1.755-4.886-2.579-6.927
			c-0.786-2.054-1.553-3.814-2.152-5.273c-1.021-2.348-1.752-3.85-1.992-4.334C1020.172,218.254,1020.174,218.254,1020.161,218.251"
			/>
		<path fill="#44DDCF" d="M1073.926,229.891c0,0,0.105,0.292,0.305,0.843c0.032,0.008,0.086,0.02,0.118,0.027
			C1074.077,230.19,1073.926,229.891,1073.926,229.891"/>
		<path fill="#35394D" d="M1087.329,281.832c0.607,3.24,1.106,6.499,1.659,9.698c0.474,3.258,0.94,6.465,1.392,9.568
			c0.38,3.114,0.747,6.125,1.095,8.979c0.185,1.427,0.339,2.818,0.451,4.167c0.13,1.348,0.255,2.65,0.375,3.9
			c0.123,1.25,0.24,2.449,0.352,3.589c0.135,1.139,0.229,2.222,0.292,3.241c0.147,2.039,0.275,3.816,0.382,5.279
			c0.221,2.929,0.378,4.604,0.378,4.604s0.042-1.678,0.061-4.618c0.005-1.471,0.011-3.257,0.019-5.306
			c0.047-2.052-0.1-4.358-0.189-6.879c-0.127-2.519-0.155-5.258-0.442-8.135c-0.249-2.88-0.45-5.926-0.8-9.062
			c-0.396-3.129-0.734-6.375-1.21-9.655c-0.481-2.92-0.915-5.891-1.433-8.853C1088.913,282.178,1088.125,282.006,1087.329,281.832"
			/>
		<path fill="#455389" d="M1074.23,230.734c0.032,0.09,0.067,0.187,0.104,0.29c0.256,0.744,0.631,1.835,1.108,3.225
			c0.45,1.397,1.031,3.08,1.611,5.039c0.612,1.948,1.232,4.167,1.945,6.575c0.367,1.2,0.679,2.472,1.04,3.776
			c0.343,1.31,0.755,2.646,1.091,4.045c0.706,2.788,1.464,5.723,2.162,8.78c0.352,1.528,0.744,3.073,1.076,4.652
			c0.335,1.578,0.674,3.175,1.016,4.786c0.175,0.804,0.35,1.611,0.525,2.421c0.153,0.814,0.308,1.631,0.462,2.449
			c0.31,1.637,0.62,3.279,0.931,4.922c0.009,0.046,0.018,0.092,0.026,0.138c0.796,0.174,1.584,0.346,2.38,0.52
			c-0.062-0.354-0.125-0.709-0.189-1.064c-0.325-1.652-0.65-3.304-0.975-4.949c-0.162-0.823-0.324-1.644-0.485-2.462
			c-0.184-0.814-0.366-1.625-0.548-2.434c-0.71-3.238-1.477-6.409-2.296-9.458c-0.756-3.065-1.654-5.983-2.471-8.758
			c-0.832-2.77-1.697-5.366-2.517-7.753c-0.828-2.385-1.622-4.557-2.385-6.461c-0.729-1.916-1.438-3.558-1.992-4.919
			c-0.646-1.496-1.167-2.624-1.503-3.332C1074.316,230.754,1074.263,230.742,1074.23,230.734"/>
		<path fill="#44DDCF" d="M1119.21,241.082c0,0,0.005,0.014,0.014,0.041c0.008,0.001-0.001,0,0.007,0.001
			C1119.217,241.096,1119.21,241.082,1119.21,241.082"/>
		<path fill="#35394D" d="M1131.634,291.983c0.415,2.442,0.786,4.886,1.188,7.293c0.434,3.07,0.86,6.092,1.272,9.016
			c0.35,2.934,0.688,5.77,1.008,8.459c0.171,1.345,0.312,2.655,0.416,3.925c0.121,1.27,0.239,2.496,0.352,3.673
			c0.114,1.178,0.225,2.307,0.329,3.381c0.126,1.073,0.214,2.093,0.275,3.053c0.141,1.92,0.264,3.594,0.365,4.972
			c0.211,2.758,0.363,4.336,0.363,4.336s0.048-1.581,0.075-4.35c0.01-1.385,0.021-3.067,0.035-4.997
			c0.051-1.933-0.073-4.105-0.151-6.48c-0.108-2.373-0.126-4.953-0.383-7.664c-0.221-2.714-0.399-5.583-0.711-8.539
			c-0.357-2.95-0.661-6.009-1.091-9.1c-0.335-2.117-0.646-4.262-0.984-6.41C1133.205,292.362,1132.422,292.173,1131.634,291.983"/>
		<path fill="#455389" d="M1119.224,241.122c0.04,0.114,0.161,0.467,0.355,1.035c0.23,0.704,0.567,1.736,0.997,3.051
			c0.406,1.322,0.93,2.914,1.452,4.767c0.551,1.842,1.106,3.94,1.752,6.215c0.611,2.284,1.259,4.763,1.922,7.388
			c0.64,2.632,1.319,5.404,1.953,8.289c0.317,1.442,0.676,2.899,0.973,4.39c0.304,1.489,0.61,2.996,0.921,4.514
			c0.67,3.027,1.149,6.142,1.738,9.235c0.12,0.659,0.234,1.319,0.347,1.979c0.788,0.19,1.571,0.379,2.358,0.57
			c-0.153-0.98-0.313-1.961-0.484-2.939c-0.619-3.111-1.129-6.243-1.829-9.287c-0.647-3.054-1.348-6.046-2.097-8.924
			c-0.69-2.892-1.512-5.648-2.262-8.267c-0.76-2.616-1.558-5.067-2.307-7.323c-0.761-2.253-1.491-4.306-2.194-6.105
			c-0.67-1.81-1.322-3.364-1.833-4.651c-0.968-2.302-1.633-3.682-1.756-3.934C1119.223,241.122,1119.231,241.124,1119.224,241.122"
			/>
		<path fill="#4D5555" d="M287.493,586.19l14.547,24.884l113.317,4.211l13.781-24.501
			C429.139,590.784,327.69,587.339,287.493,586.19z"/>
		
			<ellipse transform="matrix(0.9843 -0.1765 0.1765 0.9843 -100.4438 49.4776)" fill="#4D5555" cx="227.927" cy="589.404" rx="6.125" ry="8.806"/>
		<ellipse fill="#4D5555" cx="514.318" cy="596.718" rx="9.379" ry="11.294"/>
		<ellipse fill="#FBF7CA" cx="245.957" cy="536.346" rx="7.848" ry="9.953"/>
		<path fill="#FBF7CA" d="M493.311,539.833c0,6.342-5.025,11.483-11.222,11.483c-6.198,0-11.222-5.142-11.222-11.483
			c0-6.345,5.024-11.486,11.222-11.486C488.286,528.347,493.311,533.488,493.311,539.833"/>
		<path fill="#FBF7CA" d="M523.541,536.557c0,6.343-5.025,11.483-11.222,11.483c-6.198,0-11.222-5.141-11.222-11.483
			c0-6.345,5.024-11.486,11.222-11.486C518.516,525.07,523.541,530.212,523.541,536.557"/>
		<path fill="#FBF7CA" d="M234.487,531.946c0,5.936-3.756,10.748-8.388,10.748c-4.633,0-8.39-4.813-8.39-10.748
			c0-5.939,3.756-10.751,8.39-10.751C230.731,521.195,234.487,526.007,234.487,531.946z"/>
		<polygon fill="#C1C1C1" points="396.981,614.771 318.502,611.841 318.502,586.956 396.981,589.887 		"/>
		<path fill="#2DBA9F" d="M557.578,616.625c-81.174,5.799-307.487-8.724-344.097-11.147l11.611,16.89l335.356,12.06l134.67-18.673
			l11.761-20.95c0,0,0.021-0.491,0.063-1.384l-41.408,7.7C665.535,601.12,558.152,615.477,557.578,616.625z M776.64,598.618
			l242.647-51.441l5.92-12.941l-243.958,45.367C780.332,586.284,778.858,592.716,776.64,598.618z M1057.982,538.974l9.603-2.037
			l4.021-11.33l-9.018,1.678L1057.982,538.974z M1131.817,514.41l-29.644,5.513l-3.229,10.366l28.853-6.116l32.731-17.228
			l5.06-10.681L1131.817,514.41z"/>
		<path fill="#289983" d="M781.249,579.603c-0.203,1.478-0.438,2.942-0.697,4.393c-0.037,0.21-0.072,0.421-0.11,0.63
			c-0.097,0.519-0.201,1.034-0.306,1.549c-0.075,0.374-0.15,0.75-0.23,1.123c-0.099,0.459-0.203,0.913-0.307,1.368
			c-0.101,0.433-0.201,0.862-0.307,1.29c-0.103,0.413-0.206,0.824-0.313,1.234c-0.126,0.477-0.256,0.949-0.389,1.421
			c-0.102,0.363-0.204,0.728-0.311,1.088c-0.161,0.544-0.332,1.082-0.504,1.618c-0.092,0.287-0.181,0.577-0.275,0.862
			c-0.274,0.822-0.56,1.637-0.861,2.439l242.647-51.441l5.92-12.941L781.249,579.603z"/>
		<polygon fill="#289983" points="1131.817,514.41 1102.174,519.923 1098.945,530.289 1127.798,524.173 1160.529,506.945 
			1165.589,496.265 		"/>
		<path fill="#289983" d="M706.943,593.42l-41.408,7.7c0,0-76.413,10.216-100.666,14.102c-0.253,6.745-0.461,12.998-0.619,18.678
			l130.868-18.146l11.761-20.95c0,0,0.019-0.443,0.057-1.26L706.943,593.42z"/>
		<polygon fill="#289983" points="1062.588,527.284 1057.982,538.974 1067.585,536.937 1071.605,525.606 		"/>
		<path fill="#2E375B" d="M509.341,114.165c-40.197,0.574-185.479,10.336-226.25,26.415
			c-54.553,121.165-74.077,316.406-74.077,316.406v1.579c11.25,4.449,45.347,12.777,142.986,12.777
			c123.39,0,210.807-15.761,223.042-18.088c4.272-85.123,14.36-242.605,19.155-316.311l-0.442-7.849
			C579.398,115.313,549.538,113.591,509.341,114.165"/>
		<path fill="#42E6CF" d="M485.565,101.878c-6.5,0-13.129,0.071-19.866,0.228c-54.025,1.256-119.043,15.035-153.849,23.516
			c-0.18,2.293-0.36,4.771-0.538,7.439c58.176-11.567,164.549-18.417,198.029-18.896c4.126-0.059,8.14-0.094,12.043-0.094
			c33.019,0,57.847,2.489,71.088,13.86c0.001,0.001,0.002,0.002,0.003,0.003c0.023,0.02,0.047,0.041,0.07,0.061
			c0.005,0.005,0.012,0.01,0.017,0.015c0.018,0.016,0.038,0.033,0.055,0.048c0.01,0.009,0.02,0.017,0.029,0.026
			c0.014,0.012,0.027,0.024,0.041,0.036c0.014,0.013,0.029,0.025,0.043,0.038c0.01,0.009,0.018,0.016,0.028,0.024
			c0.018,0.016,0.037,0.032,0.055,0.048c0.008,0.007,0.015,0.013,0.023,0.021c0.02,0.018,0.039,0.035,0.059,0.052
			c0.006,0.006,0.012,0.011,0.019,0.017c0.02,0.018,0.042,0.037,0.062,0.055c0.005,0.005,0.011,0.01,0.017,0.015
			c0.021,0.019,0.042,0.038,0.063,0.057c0.004,0.004,0.009,0.008,0.014,0.013c0.022,0.02,0.043,0.04,0.065,0.06
			c0.004,0.003,0.007,0.006,0.011,0.01c0.023,0.021,0.045,0.042,0.068,0.062c0.003,0.002,0.006,0.005,0.008,0.008
			c0.023,0.021,0.047,0.043,0.07,0.064c0.002,0.002,0.004,0.004,0.006,0.006c0.023,0.022,0.047,0.044,0.071,0.066
			c0.002,0.001,0.003,0.003,0.005,0.005c0.024,0.022,0.048,0.044,0.072,0.067c0.001,0.001,0.003,0.003,0.004,0.004
			c0.024,0.022,0.049,0.045,0.073,0.068c0.002,0.001,0.002,0.001,0.004,0.003c0.024,0.023,0.049,0.046,0.073,0.069
			c0.001,0.001,0,0.001,0.001,0.001c0.025,0.024,0.05,0.047,0.075,0.071c0,0.001,0,0,0.001,0.001
			c0.025,0.023,0.05,0.048,0.075,0.071l0,0c0.407-0.61,0.845-1.162,1.318-1.657c0.625-6.991,1.163-13.445,1.611-19.092
			c0.066,0.008,0.131,0.016,0.196,0.024v0C582.587,106.631,538.653,101.878,485.565,101.878"/>
		<path fill="#3ACFBC" d="M596.683,108.346c-0.448,5.647-0.985,12.102-1.611,19.092c0.196-0.206,0.397-0.4,0.605-0.587
			c0.437-6.726,0.837-12.883,1.202-18.481C596.814,108.362,596.749,108.354,596.683,108.346"/>
		<path fill="#2D3142" d="M589.114,215.991c-1.809,28.472-3.766,59.667-5.671,90.775c-2.338,38.185-4.597,76.226-6.407,108.939
			c5.084-79.234,9.405-146.248,12.86-199.669C589.627,216.021,589.373,216.006,589.114,215.991"/>
		<path fill="#3C4776" d="M593.68,129.024c0.025,0.023,0.05,0.048,0.075,0.071C593.73,129.072,593.705,129.047,593.68,129.024
			 M593.604,128.952c0.025,0.023,0.05,0.047,0.075,0.071C593.654,128.999,593.629,128.976,593.604,128.952 M593.529,128.881
			c0.024,0.022,0.049,0.046,0.073,0.069C593.578,128.927,593.554,128.904,593.529,128.881 M593.453,128.81
			c0.024,0.022,0.049,0.046,0.073,0.068C593.501,128.855,593.477,128.832,593.453,128.81 M593.376,128.739
			c0.024,0.022,0.048,0.044,0.072,0.067C593.425,128.783,593.401,128.761,593.376,128.739 M593.3,128.668
			c0.024,0.022,0.047,0.043,0.071,0.066C593.348,128.712,593.324,128.69,593.3,128.668 M593.224,128.598
			c0.023,0.021,0.047,0.043,0.07,0.064C593.271,128.641,593.247,128.619,593.224,128.598 M593.147,128.528
			c0.023,0.021,0.045,0.041,0.068,0.062C593.192,128.569,593.17,128.549,593.147,128.528 M593.071,128.458
			c0.021,0.02,0.044,0.04,0.065,0.06C593.114,128.498,593.093,128.479,593.071,128.458 M592.993,128.389
			c0.021,0.019,0.042,0.038,0.063,0.057C593.035,128.426,593.014,128.408,592.993,128.389 M592.915,128.319
			c0.021,0.019,0.041,0.036,0.062,0.055C592.957,128.356,592.935,128.337,592.915,128.319 M592.838,128.25
			c0.019,0.017,0.04,0.035,0.059,0.052C592.876,128.285,592.857,128.268,592.838,128.25 M592.76,128.181
			c0.017,0.015,0.037,0.033,0.055,0.048C592.796,128.213,592.778,128.197,592.76,128.181 M592.689,128.119
			c0.014,0.012,0.029,0.026,0.043,0.038C592.718,128.145,592.703,128.132,592.689,128.119 M592.619,128.058
			c0.01,0.009,0.019,0.017,0.029,0.026C592.638,128.075,592.628,128.066,592.619,128.058 M592.546,127.995
			c0.006,0.006,0.011,0.009,0.017,0.015C592.558,128.005,592.552,128,592.546,127.995 M592.473,127.932
			c0.001,0.001,0.002,0.002,0.003,0.003C592.475,127.934,592.474,127.933,592.473,127.932 M595.677,126.851
			c-0.208,0.187-0.409,0.381-0.605,0.587c-0.473,0.496-0.911,1.047-1.318,1.657l0,0c0.325-0.487,0.675-0.927,1.042-1.341l0,0l0,0
			c-1.407,21.568-3.43,52.785-5.682,88.236c0.259,0.015,0.514,0.03,0.782,0.045C592.23,179.949,594.168,150.07,595.677,126.851"/>
		<path fill="#343E63" d="M594.796,127.754c-0.366,0.414-0.717,0.854-1.042,1.341l0.442,7.849
			c-2.612,40.155-6.796,105.183-10.754,169.822c1.905-31.108,3.862-62.304,5.671-90.775
			C591.366,180.54,593.389,149.323,594.796,127.754"/>
		<path fill="#42E6CF" d="M568.219,542.829c-10.584,5.352-39.309,12.629-83.258,17.948c23.729,12.236,50.603,21.702,81.024,27.642
			C566.616,574.423,567.369,559.114,568.219,542.829"/>
		<path fill="#3ACFBC" d="M568.919,542.463c-0.224,0.121-0.457,0.243-0.701,0.366c-0.85,16.285-1.603,31.594-2.234,45.59
			c0.001,0,0.001,0,0.001,0C566.982,572.8,567.961,557.465,568.919,542.463"/>
		<path fill="#343E63" d="M574.623,453.334c-12.459,2.351-85.452,15.325-190.413,17.651c18.666,27.155,41.876,51.713,70.623,71.681
			l4.167,0.065l12.633-19.906c0,0,76.329-2.742,99.523-15.34C572.344,488.901,573.5,470.862,574.623,453.334"/>
		<path fill="#D5C6BD" d="M482.089,551.316c-6.198,0-11.222-5.142-11.222-11.483c0-6.345,5.024-11.486,11.222-11.486
			c6.197,0,11.222,5.142,11.222,11.486C493.311,546.175,488.286,551.316,482.089,551.316 M512.319,548.04
			c-6.198,0-11.222-5.141-11.222-11.483c0-6.345,5.024-11.486,11.222-11.486c6.197,0,11.222,5.142,11.222,11.486
			C523.541,542.899,518.516,548.04,512.319,548.04 M571.156,507.485c-23.194,12.598-99.523,15.34-99.523,15.34L459,542.731
			l-4.167-0.065c9.435,6.555,19.458,12.608,30.128,18.111c43.949-5.319,72.673-12.597,83.258-17.948
			c0.244-0.123,0.477-0.245,0.701-0.366C569.677,530.608,570.422,518.947,571.156,507.485"/>
		<path fill="#FCF9DA" d="M482.089,528.347c-6.198,0-11.222,5.142-11.222,11.486c0,6.342,5.024,11.483,11.222,11.483
			c6.197,0,11.222-5.142,11.222-11.483C493.311,533.488,488.286,528.347,482.089,528.347"/>
		<path fill="#FCF9DA" d="M512.319,525.07c-6.198,0-11.222,5.142-11.222,11.486c0,6.343,5.024,11.483,11.222,11.483
			c6.197,0,11.222-5.141,11.222-11.483C523.541,530.212,518.516,525.07,512.319,525.07"/>
		<linearGradient id="SVGID_2_" gradientUnits="userSpaceOnUse" x1="451.9741" y1="157.0234" x2="451.9741" y2="440.0713">
			<stop  offset="0" style="stop-color:#405496"/>
			<stop  offset="0.2727" style="stop-color:#3F5292"/>
			<stop  offset="0.5644" style="stop-color:#3E4D85"/>
			<stop  offset="0.7844" style="stop-color:#3C4776"/>
		</linearGradient>
		<path fill="url(#SVGID_2_)" d="M521.384,114.071c-3.903,0-7.917,0.035-12.043,0.094c-33.479,0.479-139.853,7.329-198.029,18.896
			c-4.126,62.246-5.823,223.404,72.897,337.924c104.96-2.326,177.953-15.301,190.413-17.651c0.822-12.822,1.627-25.384,2.413-37.629
			c1.811-32.713,4.069-70.754,6.407-108.939c3.958-64.639,8.142-129.667,10.754-169.822l-0.442-7.849l0,0
			c-0.024-0.023-0.05-0.048-0.075-0.071c0-0.001,0,0-0.001-0.001c-0.025-0.023-0.05-0.047-0.075-0.071c-0.001,0,0,0-0.001-0.001
			c-0.024-0.022-0.049-0.046-0.073-0.069c-0.002-0.002-0.002-0.002-0.004-0.003c-0.024-0.022-0.048-0.046-0.073-0.068
			c0-0.001-0.003-0.003-0.004-0.004c-0.024-0.022-0.048-0.044-0.072-0.067c-0.001-0.001-0.003-0.003-0.005-0.005
			c-0.024-0.022-0.047-0.044-0.071-0.066c-0.002-0.002-0.004-0.004-0.006-0.006c-0.023-0.021-0.047-0.043-0.07-0.064
			c-0.002-0.002-0.005-0.005-0.008-0.008c-0.023-0.021-0.045-0.041-0.068-0.062c-0.003-0.003-0.007-0.007-0.011-0.01
			c-0.021-0.02-0.044-0.04-0.065-0.06c-0.005-0.004-0.01-0.009-0.014-0.013c-0.021-0.019-0.042-0.039-0.063-0.057
			c-0.005-0.005-0.011-0.01-0.017-0.015c-0.021-0.019-0.041-0.037-0.062-0.055c-0.006-0.006-0.012-0.011-0.019-0.017
			c-0.019-0.017-0.04-0.035-0.059-0.052c-0.008-0.007-0.015-0.013-0.023-0.021c-0.018-0.016-0.038-0.033-0.055-0.048
			c-0.01-0.009-0.018-0.015-0.028-0.024c-0.014-0.012-0.029-0.025-0.043-0.038c-0.014-0.012-0.027-0.024-0.041-0.036
			c-0.01-0.009-0.02-0.017-0.029-0.026c-0.018-0.015-0.038-0.032-0.055-0.048c-0.006-0.005-0.011-0.009-0.017-0.015
			c-0.023-0.02-0.047-0.041-0.07-0.061c-0.001-0.001-0.002-0.002-0.003-0.003C579.231,116.561,554.403,114.071,521.384,114.071"/>
		<path fill="#129166" d="M1158.809,408.348c0,0-7.742,0.169-21.291,0.466c-13.548,0.318-32.905,0.672-56.129,1.277
			c-23.224,0.603-50.317,1.306-79.347,2.059c-29.027,0.823-59.99,1.7-90.952,2.578c-30.96,0.968-61.92,1.936-90.944,2.842
			c-29.023,0.977-56.111,1.888-79.329,2.669c-23.216,0.854-42.563,1.566-56.105,2.065c-13.542,0.51-21.281,0.801-21.281,0.801
			s7.742-0.17,21.291-0.467c13.549-0.309,32.903-0.75,56.129-1.278c23.223-0.603,50.317-1.306,79.347-2.059
			c29.027-0.822,59.989-1.699,90.952-2.576c30.96-0.967,61.919-1.935,90.944-2.841c29.022-0.976,56.11-1.887,79.329-2.668
			c23.218-0.777,42.562-1.577,56.104-2.066C1151.07,408.64,1158.809,408.348,1158.809,408.348"/>
		<path fill="#33DBBA" d="M611.747,176.948v26.798l-14.547-0.383c0,0-0.766-4.211-3.829-8.04
			c-7.656,5.743-13.016,13.782-13.399,27.947c-0.383,14.165-6.125,76.183-6.125,80.776c0,4.594-3.062,7.273-7.273,7.657
			c-4.211,0.383-11.868,1.914-15.313,1.914s-8.422-8.039-8.422-14.547s0.766-68.143,5.742-90.347
			C553.558,186.519,576.145,166.612,611.747,176.948z"/>
		<path fill="#2DBA9F" d="M595.548,174.2c-18.22,0.996-29.722,17.042-32.758,34.523c-3.858,22.204-4.451,83.839-4.451,90.347
			c0,4.844,2.138,10.532,4.332,13.126c1.446-0.211,2.795-0.392,3.904-0.493c4.211-0.383,7.273-3.063,7.273-7.657
			c0-4.594,5.743-66.612,6.125-80.776c0.383-14.165,5.743-22.204,13.399-27.947c0.69,0.863,1.258,1.743,1.733,2.593
			c0.762-0.916,1.561-1.78,2.4-2.593c2.374,3.828,2.967,8.04,2.967,8.04l11.275,0.383v-26.798
			C606,175.28,600.598,174.41,595.548,174.2z"/>
	</g>
	<circle opacity="0.1" fill="#FCF9DA" cx="208.995" cy="518.5" r="66.501"/>
	<circle opacity="0.1" fill="#FCF9DA" cx="487.995" cy="530.5" r="69.5"/>
	<circle opacity="0.1" fill="#FCF9DA" cx="513.995" cy="537.5" r="43.5"/>
</g>
<g id="vexels">
	<g>
		<g>
			<path fill="#3B4E89" d="M676.815,751.309l-0.809-1.751c-0.398-0.841-1.454-1.231-2.344-0.87
				c-0.962,0.329-1.391,1.322-0.993,2.135l0.908,1.97l7.188,15.594c0.068,0.062,0.133,0.181,0.163,0.24
				c0,0.03,0.037,0.03,0.037,0.03c0.033,0.061,0.1,0.12,0.165,0.182c0,0.059,0.032,0.059,0.032,0.089
				c0.098,0.062,0.165,0.09,0.229,0.151c0.034,0,0.034,0,0.034,0c0.101,0.061,0.233,0.149,0.299,0.18c0.033,0,0.033,0,0.033,0
				s0.034,0,0.034,0.031c0.065,0,0.197,0.029,0.264,0.058c0.03,0,0.065,0,0.065,0c0.098,0.032,0.231,0.032,0.333,0.032
				c0.098,0,0.197,0,0.329-0.032c0.031,0,0.064,0,0.064,0c0.1-0.028,0.165-0.058,0.266-0.058c0.034-0.031,0.034-0.031,0.065-0.031
				c0.101-0.03,0.2-0.119,0.266-0.15c0.065-0.029,0.065-0.029,0.065-0.029c0.067-0.062,0.132-0.09,0.197-0.151
				c0.036-0.03,0.036-0.03,0.067-0.089c0.034-0.062,0.132-0.121,0.165-0.182c0.033,0,0.033,0,0.033-0.03
				c0.067-0.06,0.104-0.179,0.136-0.24l0.307-0.662l-1.958-4.241L676.815,751.309z M746.913,751.183
				c0.561-0.752,0.43-1.772-0.395-2.286c-0.826-0.57-1.918-0.42-2.544,0.361l-3.766,4.698l2.242,2.743L746.913,751.183z
				 M691.272,748.688c-0.891-0.361-1.981,0.029-2.378,0.87l-4.785,10.343l1.964,4.247l6.191-13.325
				C692.627,750.01,692.199,749.017,691.272,748.688z M648.618,742.329c-0.778-0.776-1.812-1.203-2.909-1.203
				c-1.099,0-2.13,0.427-2.907,1.203l-13.314,13.316c-1.601,1.604-1.601,4.21,0,5.812l13.314,13.316
				c0.777,0.776,1.808,1.202,2.907,1.202c1.098,0,2.131-0.426,2.909-1.201l13.313-13.317c0.779-0.778,1.206-1.806,1.206-2.907
				c0-1.094-0.427-2.128-1.206-2.904L648.618,742.329z M659.864,759.745l-12.961,12.961c-0.639,0.638-1.75,0.638-2.385,0
				l-12.962-12.961c-0.657-0.658-0.657-1.729-0.003-2.388l12.965-12.961c0.011-0.012,0.022-0.021,0.034-0.029v10.74
				c-0.527,0.178-1.014,0.46-1.42,0.867c-0.688,0.688-1.066,1.603-1.066,2.575c0,0.975,0.378,1.892,1.066,2.575
				c0.688,0.691,1.604,1.07,2.575,1.07c0.974,0,1.891-0.376,2.579-1.07c1.419-1.418,1.419-3.729,0-5.154
				c-0.405-0.404-0.892-0.686-1.42-0.863v-10.74c0.01,0.008,0.024,0.018,0.036,0.029l12.961,12.961
				c0.319,0.319,0.491,0.742,0.491,1.192S660.183,759.421,659.864,759.745z M740.638,758.941l-2.217-2.767l-5.58-6.917
				c-0.566-0.781-1.721-0.932-2.516-0.361c-0.826,0.514-0.989,1.534-0.429,2.286l6.278,7.759l-6.278,7.82
				c-0.561,0.721-0.397,1.775,0.429,2.285c0.298,0.211,0.663,0.332,1.057,0.332c0.563,0,1.09-0.271,1.458-0.693l5.58-6.946
				l5.961,7.459c0.345,0.429,0.889,0.651,1.396,0.651c0.378,0,0.819-0.174,1.136-0.426c0.749-0.597,0.808-1.677,0.209-2.423
				L740.638,758.941z M711.415,748.36c-5.343,0-9.694,4.726-9.694,10.531c0,5.762,4.351,10.452,9.694,10.452
				c3.283,0,6.307-1.79,8.089-4.793c0.43-0.775,0.213-1.741-0.544-2.316c-0.244-0.156-0.532-0.24-0.826-0.24
				c-0.571,0-1.08,0.306-1.355,0.808c-1.12,1.972-3.175,3.195-5.364,3.195c-3.242,0-5.93-2.58-6.411-6.07h14.421
				c0.901,0,1.606-0.7,1.606-1.595l-0.001-0.213C720.619,752.558,716.485,748.36,711.415,748.36z M705.239,756.621
				c0.875-2.959,3.301-4.913,6.176-4.913c2.817,0,5.255,1.997,6.075,4.913H705.239z M794.03,765.944
				c-0.033-0.001-2.483-0.001-2.519-0.001c-0.935,0-2.021-0.537-2.021-2.047V747.15c0-0.985-0.804-1.784-1.792-1.784
				c-0.952,0-1.786,0.834-1.786,1.784v16.746c0,3.312,2.198,5.45,5.6,5.45c0.043,0,2.5,0,2.542-0.003
				c0.882-0.063,1.577-0.803,1.577-1.699C795.631,766.743,794.923,765.997,794.03,765.944z M821.376,760.417
				c-0.761-1.116-1.949-1.896-3.305-2.496c-1.321-0.573-2.875-0.963-4.561-1.264h-0.067c-1.782-0.301-3.268-0.785-4.128-1.325
				c-0.43-0.268-0.729-0.54-0.896-0.781c-0.163-0.238-0.229-0.482-0.229-0.839c0-0.634,0.362-1.295,1.259-1.896
				c0.89-0.601,2.212-1.023,3.698-1.023c2.015,0,3.634,0.902,5.321,1.924c0.792,0.481,1.85,0.271,2.344-0.451
				c0.529-0.69,0.3-1.654-0.46-2.135c-1.687-0.992-4.034-2.406-7.205-2.406c-2.148,0-4.161,0.571-5.716,1.593
				c-1.521,1.027-2.646,2.588-2.646,4.396c0,0.898,0.266,1.743,0.762,2.463c0.726,1.054,1.816,1.807,3.07,2.346
				c1.256,0.541,2.713,0.903,4.263,1.173h0.069c1.948,0.332,3.568,0.843,4.526,1.414c0.495,0.302,0.792,0.601,0.992,0.902
				c0.197,0.302,0.295,0.57,0.295,0.961c0,0.754-0.428,1.505-1.422,2.166c-0.989,0.662-2.477,1.113-4.128,1.113
				c-2.347,0.03-4.858-1.233-6.312-2.313c-0.729-0.545-1.818-0.454-2.413,0.206c-0.563,0.662-0.462,1.656,0.266,2.195
				c1.885,1.356,4.889,2.98,8.459,3.009c2.346,0,4.494-0.63,6.114-1.712c1.65-1.086,2.84-2.736,2.84-4.664
				C822.168,762.039,821.873,761.139,821.376,760.417z M766.596,748.36c-5.345,0-9.692,4.726-9.692,10.531
				c0,5.762,4.348,10.452,9.692,10.452c3.287,0,6.306-1.79,8.092-4.793c0.429-0.775,0.212-1.741-0.542-2.316
				c-0.247-0.156-0.533-0.24-0.828-0.24c-0.571,0-1.078,0.306-1.355,0.808c-1.118,1.972-3.174,3.195-5.366,3.195
				c-3.24,0-5.93-2.58-6.411-6.07h14.424c0.9,0,1.605-0.7,1.605-1.595l-0.001-0.213C775.803,752.558,771.669,748.36,766.596,748.36z
				 M760.42,756.621c0.876-2.959,3.303-4.913,6.176-4.913c2.823,0,5.257,1.997,6.076,4.913H760.42z"/>
		</g>
		<g>
			<path fill="#3B4E89" d="M530.498,759.947c0,0.625,0.006,1.192,0.019,1.701c0.012,0.508,0.067,1.007,0.165,1.497h-0.993
				l-0.367-1.304h-0.074c-0.245,0.428-0.601,0.783-1.065,1.066c-0.466,0.28-1.011,0.422-1.636,0.422
				c-1.225,0-2.135-0.386-2.729-1.158c-0.594-0.772-0.891-1.979-0.891-3.621c0-1.568,0.371-2.759,1.112-3.574
				c0.741-0.814,1.761-1.222,3.06-1.222c0.454,0,0.812,0.024,1.076,0.073c0.263,0.05,0.548,0.128,0.854,0.239v-3.824h1.47V759.947z
				 M526.785,762.044c0.625,0,1.122-0.163,1.489-0.487c0.367-0.324,0.618-0.818,0.753-1.479v-4.558
				c-0.221-0.172-0.472-0.295-0.753-0.368c-0.282-0.074-0.656-0.11-1.121-0.11c-0.846,0-1.507,0.279-1.985,0.836
				c-0.478,0.559-0.717,1.449-0.717,2.674c0,0.503,0.04,0.969,0.12,1.396c0.079,0.431,0.211,0.798,0.395,1.104
				c0.184,0.307,0.426,0.549,0.727,0.727C525.992,761.955,526.357,762.044,526.785,762.044z"/>
			<path fill="#3B4E89" d="M540.037,762.375c-0.368,0.294-0.831,0.526-1.388,0.697c-0.558,0.171-1.149,0.258-1.773,0.258
				c-0.699,0-1.306-0.114-1.82-0.34c-0.515-0.228-0.938-0.552-1.268-0.975c-0.331-0.423-0.576-0.929-0.735-1.517
				s-0.239-1.249-0.239-1.985c0-1.567,0.35-2.762,1.048-3.583c0.698-0.82,1.697-1.232,2.995-1.232c0.417,0,0.833,0.048,1.25,0.139
				c0.416,0.092,0.791,0.267,1.121,0.524s0.6,0.622,0.809,1.094c0.208,0.472,0.313,1.093,0.313,1.865
				c0,0.404-0.038,0.852-0.11,1.342h-5.9c0,0.538,0.055,1.017,0.166,1.434s0.281,0.769,0.515,1.056
				c0.232,0.289,0.536,0.51,0.91,0.662c0.374,0.153,0.83,0.23,1.369,0.23c0.417,0,0.833-0.074,1.25-0.221
				c0.417-0.147,0.729-0.319,0.938-0.515L540.037,762.375z M536.876,754.986c-0.724,0-1.302,0.189-1.737,0.569
				c-0.435,0.38-0.695,1.029-0.781,1.948h4.559c0-0.932-0.178-1.584-0.533-1.957C538.027,755.173,537.525,754.986,536.876,754.986z"
				/>
			<path fill="#3B4E89" d="M546.708,760.61c0-0.368-0.111-0.656-0.331-0.864c-0.221-0.209-0.494-0.383-0.818-0.523
				c-0.325-0.142-0.68-0.275-1.065-0.405c-0.386-0.128-0.742-0.294-1.066-0.495c-0.325-0.203-0.598-0.463-0.818-0.781
				c-0.22-0.319-0.331-0.748-0.331-1.287c0-0.883,0.251-1.528,0.753-1.938s1.201-0.617,2.096-0.617c0.662,0,1.216,0.06,1.663,0.176
				s0.836,0.255,1.167,0.414l-0.35,1.213c-0.281-0.135-0.622-0.255-1.02-0.358c-0.398-0.104-0.824-0.156-1.277-0.156
				c-0.539,0-0.935,0.091-1.186,0.275c-0.251,0.184-0.377,0.502-0.377,0.955c0,0.319,0.11,0.567,0.331,0.745
				s0.493,0.337,0.817,0.479c0.325,0.14,0.681,0.278,1.066,0.412c0.386,0.135,0.741,0.313,1.066,0.533
				c0.325,0.222,0.597,0.5,0.818,0.837c0.22,0.337,0.331,0.78,0.331,1.331c0,0.394-0.064,0.761-0.193,1.104
				c-0.129,0.344-0.328,0.638-0.597,0.882c-0.27,0.246-0.604,0.439-1.002,0.579c-0.398,0.141-0.867,0.212-1.406,0.212
				c-0.698,0-1.293-0.068-1.782-0.203c-0.491-0.135-0.901-0.294-1.231-0.477l0.441-1.251c0.282,0.159,0.649,0.308,1.103,0.442
				c0.453,0.134,0.912,0.202,1.378,0.202c0.526,0,0.962-0.104,1.305-0.313C546.537,761.522,546.708,761.148,546.708,760.61z"/>
			<path fill="#3B4E89" d="M550.402,751.127c0-0.282,0.095-0.524,0.285-0.727c0.189-0.203,0.432-0.304,0.726-0.304
				c0.294,0,0.545,0.101,0.753,0.304c0.208,0.202,0.313,0.444,0.313,0.727c0,0.281-0.104,0.514-0.313,0.697
				c-0.208,0.185-0.459,0.276-0.753,0.276c-0.294,0-0.536-0.092-0.726-0.276C550.497,751.641,550.402,751.408,550.402,751.127z
				 M550.714,753.92h1.47v9.189h-1.47V753.92z"/>
			<path fill="#3B4E89" d="M562.366,763.532c0,1.188-0.315,2.064-0.946,2.628c-0.631,0.563-1.565,0.846-2.803,0.846
				c-0.735,0-1.326-0.046-1.774-0.139c-0.447-0.092-0.83-0.21-1.149-0.358l0.386-1.249c0.282,0.11,0.594,0.215,0.938,0.313
				c0.342,0.098,0.79,0.146,1.341,0.146c0.515,0,0.934-0.046,1.259-0.138c0.324-0.091,0.584-0.245,0.78-0.46
				c0.196-0.214,0.331-0.49,0.405-0.827c0.073-0.337,0.11-0.738,0.11-1.203v-0.882h-0.074c-0.245,0.355-0.558,0.628-0.937,0.817
				c-0.38,0.189-0.876,0.285-1.489,0.285c-1.237,0-2.147-0.386-2.729-1.158c-0.583-0.772-0.873-1.973-0.873-3.603
				c0-1.568,0.374-2.759,1.121-3.574c0.748-0.814,1.85-1.222,3.308-1.222c0.699,0,1.296,0.055,1.792,0.165
				c0.496,0.11,0.939,0.238,1.332,0.387V763.532z M558.672,762.024c0.625,0,1.115-0.155,1.47-0.468s0.607-0.8,0.754-1.461v-4.706
				c-0.491-0.232-1.116-0.349-1.875-0.349c-0.833,0-1.489,0.282-1.967,0.846c-0.478,0.563-0.717,1.446-0.717,2.646
				c0,0.515,0.043,0.987,0.129,1.415c0.086,0.431,0.22,0.798,0.404,1.104c0.184,0.307,0.423,0.545,0.717,0.718
				C557.882,761.939,558.243,762.024,558.672,762.024z"/>
			<path fill="#3B4E89" d="M571.096,763.109v-5.238c0-0.955-0.138-1.675-0.414-2.158c-0.276-0.485-0.781-0.727-1.517-0.727
				c-0.649,0-1.185,0.175-1.608,0.523s-0.72,0.787-0.891,1.313v6.286h-1.47v-9.189h1.029l0.275,1.121h0.073
				c0.294-0.393,0.689-0.714,1.186-0.965c0.496-0.251,1.087-0.378,1.773-0.378c0.502,0,0.943,0.06,1.323,0.176
				c0.38,0.116,0.695,0.321,0.947,0.615c0.25,0.294,0.441,0.69,0.569,1.186c0.129,0.496,0.193,1.125,0.193,1.884v5.551H571.096z"/>
			<path fill="#3B4E89" d="M581.958,762.375c-0.368,0.294-0.831,0.526-1.388,0.697c-0.558,0.171-1.149,0.258-1.773,0.258
				c-0.698,0-1.306-0.114-1.82-0.34c-0.515-0.228-0.938-0.552-1.268-0.975s-0.576-0.929-0.735-1.517s-0.239-1.249-0.239-1.985
				c0-1.567,0.35-2.762,1.048-3.583c0.698-0.82,1.697-1.232,2.995-1.232c0.417,0,0.833,0.048,1.25,0.139
				c0.417,0.092,0.791,0.267,1.121,0.524s0.6,0.622,0.809,1.094c0.208,0.472,0.313,1.093,0.313,1.865
				c0,0.404-0.038,0.852-0.11,1.342h-5.9c0,0.538,0.055,1.017,0.166,1.434s0.281,0.769,0.515,1.056
				c0.233,0.289,0.536,0.51,0.91,0.662c0.374,0.153,0.83,0.23,1.369,0.23c0.417,0,0.833-0.074,1.25-0.221
				c0.417-0.147,0.729-0.319,0.938-0.515L581.958,762.375z M578.797,754.986c-0.724,0-1.302,0.189-1.737,0.569
				c-0.435,0.38-0.695,1.029-0.781,1.948h4.558c0-0.932-0.178-1.584-0.533-1.957C579.948,755.173,579.446,754.986,578.797,754.986z"
				/>
			<path fill="#3B4E89" d="M591.644,759.947c0,0.625,0.006,1.192,0.018,1.701c0.012,0.508,0.067,1.007,0.166,1.497h-0.993
				l-0.367-1.304h-0.074c-0.245,0.428-0.601,0.783-1.066,1.066c-0.466,0.28-1.011,0.422-1.636,0.422
				c-1.225,0-2.134-0.386-2.729-1.158c-0.594-0.772-0.891-1.979-0.891-3.621c0-1.568,0.37-2.759,1.112-3.574
				c0.741-0.814,1.761-1.222,3.06-1.222c0.453,0,0.812,0.024,1.075,0.073c0.264,0.05,0.548,0.128,0.855,0.239v-3.824h1.47V759.947z
				 M587.931,762.044c0.625,0,1.121-0.163,1.489-0.487c0.367-0.324,0.618-0.818,0.753-1.479v-4.558
				c-0.221-0.172-0.472-0.295-0.753-0.368c-0.282-0.074-0.656-0.11-1.121-0.11c-0.846,0-1.508,0.279-1.985,0.836
				c-0.478,0.559-0.717,1.449-0.717,2.674c0,0.503,0.04,0.969,0.12,1.396c0.079,0.431,0.211,0.798,0.395,1.104
				c0.185,0.307,0.426,0.549,0.727,0.727C587.138,761.955,587.502,762.044,587.931,762.044z"/>
			<path fill="#3B4E89" d="M599.381,750.243h1.47v4.577h0.074c0.282-0.354,0.64-0.63,1.075-0.826
				c0.435-0.196,0.909-0.296,1.424-0.296c1.188,0,2.08,0.381,2.674,1.14c0.594,0.761,0.891,1.937,0.891,3.53
				c0,1.604-0.393,2.823-1.176,3.656c-0.785,0.834-1.887,1.251-3.308,1.251c-0.687,0-1.308-0.073-1.865-0.222
				c-0.558-0.146-0.978-0.306-1.259-0.478V750.243z M603.167,754.986c-0.613,0-1.109,0.171-1.489,0.515
				c-0.38,0.342-0.656,0.827-0.827,1.451v4.632c0.233,0.135,0.515,0.236,0.846,0.303c0.331,0.068,0.673,0.101,1.029,0.101
				c0.833,0,1.499-0.294,1.994-0.882c0.496-0.588,0.744-1.507,0.744-2.756c0-0.479-0.043-0.926-0.128-1.342
				c-0.085-0.417-0.22-0.772-0.405-1.066c-0.184-0.294-0.419-0.527-0.707-0.698C603.936,755.072,603.583,754.986,603.167,754.986z"
				/>
			<path fill="#3B4E89" d="M611.795,759.875l0.517,1.764h0.092l0.406-1.782l1.789-5.937h1.47l-2.719,8.252
				c-0.209,0.6-0.414,1.183-0.616,1.746s-0.426,1.066-0.67,1.507c-0.246,0.441-0.521,0.793-0.828,1.057
				c-0.306,0.263-0.662,0.396-1.066,0.396c-0.441,0-0.803-0.062-1.084-0.184l0.257-1.269c0.159,0.062,0.313,0.093,0.459,0.093
				c0.343,0,0.673-0.182,0.992-0.543c0.318-0.361,0.582-0.983,0.79-1.865l-3.694-9.189h1.69L611.795,759.875z"/>
		</g>
	</g>
	<g>
		<path fill="#FFFFFF" d="M1995.4,146.841h-530.638c-9.006,0-16.307,7.301-16.307,16.306v220.666l-51.06,16.399l51.06,14.823
			v153.777c0,9.005,7.301,16.307,16.307,16.307H1995.4c9.006,0,16.307-7.302,16.307-16.307V163.147
			C2011.707,154.143,2004.406,146.841,1995.4,146.841z"/>
		<g>
			<rect x="1509.884" y="192.425" fill="none" width="451.075" height="369.177"/>
			<text transform="matrix(1 0 0 1 1509.8838 206.4507)"><tspan x="0" y="0" fill="#333333" font-family="'MyriadPro-Regular'" font-size="19.7551">This design was made by vexels.com. It’s under CC 3.0 </tspan><tspan x="0" y="23.706" fill="#333333" font-family="'MyriadPro-Regular'" font-size="19.7551">Attribution License. This means that for free use you </tspan><tspan x="0" y="47.413" fill="#333333" font-family="'MyriadPro-Regular'" font-size="19.7551">must give credit and can’t do merchandise items. You </tspan><tspan x="0" y="71.119" fill="#333333" font-family="'MyriadPro-Regular'" font-size="19.7551">can only do commercial and merchandise items </tspan><tspan x="0" y="94.825" fill="#333333" font-family="'MyriadPro-Regular'" font-size="19.7551">without credit if you get a license. Learn more on </tspan><tspan x="0" y="118.531" fill="#E34A00" font-family="'MyriadPro-Regular'" font-size="19.7551">www.vexels.com/plans</tspan><tspan x="0" y="165.943" fill="#333333" font-family="'MyriadPro-Regular'" font-size="19.7551">You can’t sublicense, redistribute or resell an image or </tspan><tspan x="0" y="189.649" fill="#333333" font-family="'MyriadPro-Regular'" font-size="19.7551">part of it. You can only use our contents for products </tspan><tspan x="0" y="213.355" fill="#333333" font-family="'MyriadPro-Regular'" font-size="19.7551">where the design is the main reason it’s being </tspan><tspan x="0" y="237.062" fill="#333333" font-family="'MyriadPro-Regular'" font-size="19.7551">purchased if you get a license. Learn more on </tspan><tspan x="0" y="260.768" fill="#E34A00" font-family="'MyriadPro-Regular'" font-size="19.7551">www.vexels.com/terms-and-conditions</tspan><tspan x="0" y="308.18" fill="#333333" font-family="'MyriadPro-Regular'" font-size="19.7551">Thanks!</tspan><tspan x="0" y="331.886" fill="#333333" font-family="'MyriadPro-Regular'" font-size="19.7551">Vexels Team</tspan></text>
		</g>
	</g>
</g>
</svg>
